<svg width="25" height="24" viewBox="0 0 25 24" fill="none" xmlns="http://www.w3.org/2000/svg">
<path d="M22.5 9.5C22.5 15.025 15.75 20.75 12.5 20.75C9.25 20.75 2.5 15.025 2.5 9.5C2.5 3.975 7 0.75 12.5 0.75C18 0.75 22.5 4 22.5 9.5Z" fill="#00DBA8"/>
<path d="M12.5 19.195C9.39 19.195 3.09 13.96 2.545 8.69499C2.5 8.94499 2.5 9.21499 2.5 9.49999C2.5 15.025 9.25 20.75 12.5 20.75C15.75 20.75 22.5 15.025 22.5 9.49999C22.5 9.21499 22.5 8.94499 22.46 8.67499C21.91 13.96 15.61 19.195 12.5 19.195Z" fill="#00AD85"/>
<path d="M15 15C14.26 15.4944 13.39 15.7583 12.5 15.7583C11.61 15.7583 10.74 15.4944 10 15" stroke="#45413C" stroke-width="0.5" stroke-linecap="round"/>
<path opacity="0.15" d="M4.5 22.75C4.5 22.9489 5.34285 23.1397 6.84315 23.2803C8.34344 23.421 10.3783 23.5 12.5 23.5C14.6217 23.5 16.6566 23.421 18.1569 23.2803C19.6571 23.1397 20.5 22.9489 20.5 22.75C20.5 22.5511 19.6571 22.3603 18.1569 22.2197C16.6566 22.079 14.6217 22 12.5 22C10.3783 22 8.34344 22.079 6.84315 22.2197C5.34285 22.3603 4.5 22.5511 4.5 22.75Z" fill="#45413C"/>
<path d="M22.5 9.5C22.5 15.025 15.75 20.75 12.5 20.75C9.25 20.75 2.5 15.025 2.5 9.5C2.5 3.975 7 0.75 12.5 0.75C18 0.75 22.5 4 22.5 9.5Z" stroke="#45413C" stroke-width="0.5" stroke-linecap="round" stroke-linejoin="round"/>
<path d="M5.94 6.205C4.755 7.11 4.72 9.055 5.855 10.55C6.99 12.045 8.995 12.275 10.355 12.08C10.792 11.346 11.0054 10.5004 10.969 9.64693C10.9326 8.79344 10.648 7.96912 10.15 7.275C9 5.78 7.13 5.305 5.94 6.205Z" fill="#BF8DF2"/>
<path d="M10.15 7.275C9.01502 5.775 7.15002 5.305 5.94002 6.205C5.55661 6.53206 5.2744 6.96167 5.12651 7.44343C4.97861 7.9252 4.97116 8.43915 5.10502 8.925C5.21486 8.389 5.51061 7.90908 5.94002 7.57C7.13002 6.665 9.01502 7.145 10.15 8.635C10.5591 9.18274 10.8254 9.82366 10.925 10.5C11.1022 9.36486 10.8236 8.20569 10.15 7.275Z" fill="#DABFF5"/>
<path d="M5.94 6.205C4.755 7.11 4.72 9.055 5.855 10.55C6.99 12.045 8.995 12.275 10.355 12.08C10.792 11.346 11.0054 10.5004 10.969 9.64693C10.9326 8.79344 10.648 7.96912 10.15 7.275C9 5.78 7.13 5.305 5.94 6.205Z" stroke="#45413C" stroke-width="0.5" stroke-linecap="round" stroke-linejoin="round"/>
<path d="M19.06 6.205C20.245 7.11 20.28 9.055 19.145 10.55C18.01 12.045 16.005 12.275 14.645 12.08C14.208 11.346 13.9946 10.5004 14.031 9.64693C14.0674 8.79344 14.352 7.96912 14.85 7.275C16 5.78 17.87 5.305 19.06 6.205Z" fill="#BF8DF2"/>
<path d="M14.85 7.275C15.985 5.775 17.85 5.305 19.06 6.205C19.4434 6.53206 19.7256 6.96167 19.8735 7.44343C20.0214 7.9252 20.0289 8.43915 19.895 8.925C19.7852 8.389 19.4894 7.90908 19.06 7.57C17.87 6.665 15.985 7.145 14.85 8.635C14.4409 9.18274 14.1746 9.82366 14.075 10.5C13.8978 9.36486 14.1764 8.20569 14.85 7.275Z" fill="#DABFF5"/>
<path d="M19.06 6.205C20.245 7.11 20.28 9.055 19.145 10.55C18.01 12.045 16.005 12.275 14.645 12.08C14.208 11.346 13.9946 10.5004 14.031 9.64693C14.0674 8.79344 14.352 7.96912 14.85 7.275C16 5.78 17.87 5.305 19.06 6.205Z" stroke="#45413C" stroke-width="0.5" stroke-linecap="round" stroke-linejoin="round"/>
<path d="M13.25 13V13.75" stroke="#45413C" stroke-width="0.5" stroke-linecap="round" stroke-linejoin="round"/>
<path d="M11.75 13V13.75" stroke="#45413C" stroke-width="0.5" stroke-linecap="round" stroke-linejoin="round"/>
<path d="M5.90503 14.085C5.90503 14.2839 6.03673 14.4747 6.27115 14.6154C6.50557 14.756 6.82351 14.835 7.15503 14.835C7.48655 14.835 7.80449 14.756 8.03891 14.6154C8.27333 14.4747 8.40503 14.2839 8.40503 14.085C8.40503 13.8861 8.27333 13.6953 8.03891 13.5547C7.80449 13.414 7.48655 13.335 7.15503 13.335C6.82351 13.335 6.50557 13.414 6.27115 13.5547C6.03673 13.6953 5.90503 13.8861 5.90503 14.085Z" fill="#00AD85"/>
<path d="M16.595 14.085C16.595 14.2839 16.7267 14.4747 16.9611 14.6154C17.1955 14.756 17.5135 14.835 17.845 14.835C18.1765 14.835 18.4944 14.756 18.7289 14.6154C18.9633 14.4747 19.095 14.2839 19.095 14.085C19.095 13.8861 18.9633 13.6953 18.7289 13.5547C18.4944 13.414 18.1765 13.335 17.845 13.335C17.5135 13.335 17.1955 13.414 16.9611 13.5547C16.7267 13.6953 16.595 13.8861 16.595 14.085Z" fill="#00AD85"/>
<path d="M9.52002 2.69501C9.52002 2.7935 9.59762 2.89103 9.74838 2.98202C9.89914 3.07301 10.1201 3.15569 10.3987 3.22534C10.6773 3.29498 11.008 3.35023 11.372 3.38792C11.7359 3.42561 12.1261 3.44501 12.52 3.44501C12.914 3.44501 13.3041 3.42561 13.6681 3.38792C14.032 3.35023 14.3628 3.29498 14.6413 3.22534C14.9199 3.15569 15.1409 3.07301 15.2917 2.98202C15.4424 2.89103 15.52 2.7935 15.52 2.69501C15.52 2.59652 15.4424 2.49899 15.2917 2.40799C15.1409 2.317 14.9199 2.23432 14.6413 2.16468C14.3628 2.09503 14.032 2.03979 13.6681 2.0021C13.3041 1.96441 12.914 1.94501 12.52 1.94501C12.1261 1.94501 11.7359 1.96441 11.372 2.0021C11.008 2.03979 10.6773 2.09503 10.3987 2.16468C10.1201 2.23432 9.89914 2.317 9.74838 2.40799C9.59762 2.49899 9.52002 2.59652 9.52002 2.69501Z" fill="#00F5BC"/>
</svg>
