<svg width="25" height="24" viewBox="0 0 25 24" fill="none" xmlns="http://www.w3.org/2000/svg">
<path d="M19.265 6.07499C19.0098 5.7734 18.8381 5.41017 18.767 5.02152C18.6959 4.63287 18.728 4.23238 18.86 3.85999C19.2108 3.04524 19.8603 2.39576 20.675 2.04499C20.8961 1.92012 21.0856 1.74603 21.2286 1.53621C21.3717 1.32639 21.4645 1.08646 21.5 0.834991C21.5 0.834991 23.15 3.12499 22.305 5.06999C21.5 6.91499 20.305 6.47999 20.305 6.47999L19.265 6.07499Z" fill="#F7E5C6"/>
<path d="M20.675 2.04499C19.8767 2.39277 19.2367 3.02564 18.88 3.81999C19.4806 3.59488 20.1447 3.6092 20.735 3.85999C21.0601 3.96222 21.3608 4.12982 21.6188 4.35252C21.8767 4.57522 22.0864 4.8483 22.235 5.15499L22.275 5.06999C23.135 3.12499 21.5 0.834991 21.5 0.834991C21.4645 1.08646 21.3717 1.32639 21.2286 1.53621C21.0856 1.74603 20.8961 1.92012 20.675 2.04499Z" fill="#FFF5E3"/>
<path d="M19.265 6.07499C19.0098 5.7734 18.8381 5.41017 18.767 5.02152C18.6959 4.63287 18.728 4.23238 18.86 3.85999C19.2108 3.04524 19.8603 2.39576 20.675 2.04499C20.8961 1.92012 21.0856 1.74603 21.2286 1.53621C21.3717 1.32639 21.4645 1.08646 21.5 0.834991C21.5 0.834991 23.15 3.12499 22.305 5.06999C21.5 6.91499 20.305 6.47999 20.305 6.47999L19.265 6.07499Z" stroke="#45413C" stroke-width="0.5" stroke-linecap="round" stroke-linejoin="round"/>
<path d="M20.15 6.36499C20.6912 5.91657 21.0879 5.31817 21.29 4.64499" stroke="#45413C" stroke-width="0.5" stroke-linecap="round" stroke-linejoin="round"/>
<path d="M19.66 6.21C19.5658 5.59135 19.6418 4.9587 19.88 4.38" stroke="#45413C" stroke-width="0.5" stroke-linecap="round" stroke-linejoin="round"/>
<path opacity="0.15" d="M6.75 22.75C6.75 22.9489 7.3558 23.1397 8.43414 23.2803C9.51247 23.421 10.975 23.5 12.5 23.5C14.025 23.5 15.4875 23.421 16.5659 23.2803C17.6442 23.1397 18.25 22.9489 18.25 22.75C18.25 22.5511 17.6442 22.3603 16.5659 22.2197C15.4875 22.079 14.025 22 12.5 22C10.975 22 9.51247 22.079 8.43414 22.2197C7.3558 22.3603 6.75 22.5511 6.75 22.75Z" fill="#45413C"/>
<path d="M11 3.30499C6.165 3.30499 2.25 5.66499 2.25 9.80499V9.83999C2.25713 10.1723 2.35082 10.4969 2.52183 10.7819C2.69284 11.0668 2.93525 11.3022 3.22509 11.4648C3.51494 11.6274 3.84219 11.7116 4.17452 11.709C4.50684 11.7064 4.83274 11.6171 5.12 11.45L6.68 10.58C6.7859 10.5224 6.90778 10.5012 7.02689 10.5197C7.14601 10.5382 7.25576 10.5952 7.33927 10.6822C7.42278 10.7691 7.47542 10.881 7.48911 11.0008C7.50279 11.1205 7.47675 11.2415 7.415 11.345L5.255 14.845C5.12719 15.0495 5.04355 15.2785 5.00946 15.5172C4.97536 15.756 4.99155 15.9992 5.05699 16.2313C5.12243 16.4634 5.23568 16.6793 5.38947 16.865C5.54326 17.0508 5.73419 17.2024 5.95 17.31C7.29305 17.9686 8.76916 18.3107 10.265 18.31C15.095 18.31 19.015 14.955 19.015 10.81C19.015 6.66499 15.845 3.30499 11 3.30499ZM9.5 16.555C8.67 16.555 8 16.055 8 15.43C8 14.805 8.67 14.305 9.5 14.305C10.33 14.305 11 14.805 11 15.43C11 16.055 10.34 16.555 9.5 16.555Z" fill="#F0D5A8"/>
<path d="M11 4.80499C15.5 4.80499 18.575 7.73999 18.955 11.51C18.9826 11.276 18.9976 11.0406 19 10.805C19 6.66499 15.83 3.30499 11 3.30499C6.17 3.30499 2.25 5.66499 2.25 9.80499V9.83999C2.25056 10.018 2.27752 10.1949 2.33 10.365C2.895 6.80999 6.56 4.80499 11 4.80499Z" fill="#F7E5C6"/>
<path d="M11 3.30499C6.165 3.30499 2.25 5.66499 2.25 9.80499V9.83999C2.25713 10.1723 2.35082 10.4969 2.52183 10.7819C2.69284 11.0668 2.93525 11.3022 3.22509 11.4648C3.51494 11.6274 3.84219 11.7116 4.17452 11.709C4.50684 11.7064 4.83274 11.6171 5.12 11.45L6.68 10.58C6.7859 10.5224 6.90778 10.5012 7.02689 10.5197C7.14601 10.5382 7.25576 10.5952 7.33927 10.6822C7.42278 10.7691 7.47542 10.881 7.48911 11.0008C7.50279 11.1205 7.47675 11.2415 7.415 11.345L5.255 14.845C5.12719 15.0495 5.04355 15.2785 5.00946 15.5172C4.97536 15.756 4.99155 15.9992 5.05699 16.2313C5.12243 16.4634 5.23568 16.6793 5.38947 16.865C5.54326 17.0508 5.73419 17.2024 5.95 17.31C7.29305 17.9686 8.76916 18.3107 10.265 18.31C15.095 18.31 19.015 14.955 19.015 10.81C19.015 6.66499 15.845 3.30499 11 3.30499ZM9.5 16.555C8.67 16.555 8 16.055 8 15.43C8 14.805 8.67 14.305 9.5 14.305C10.33 14.305 11 14.805 11 15.43C11 16.055 10.34 16.555 9.5 16.555Z" stroke="#45413C" stroke-width="0.5" stroke-linecap="round" stroke-linejoin="round"/>
<path d="M13.115 13.68C13.115 13.9784 13.2809 14.2645 13.5763 14.4755C13.8717 14.6865 14.2723 14.805 14.69 14.805C15.1077 14.805 15.5083 14.6865 15.8037 14.4755C16.0991 14.2645 16.265 13.9784 16.265 13.68C16.265 13.3816 16.0991 13.0955 15.8037 12.8845C15.5083 12.6735 15.1077 12.555 14.69 12.555C14.2723 12.555 13.8717 12.6735 13.5763 12.8845C13.2809 13.0955 13.115 13.3816 13.115 13.68Z" fill="#FF6242"/>
<path d="M14.015 8.65998C14.015 8.96366 14.1599 9.25489 14.4177 9.46962C14.6756 9.68435 15.0253 9.80498 15.39 9.80498C15.7547 9.80498 16.1044 9.68435 16.3623 9.46962C16.6201 9.25489 16.765 8.96366 16.765 8.65998C16.765 8.35631 16.6201 8.06508 16.3623 7.85035C16.1044 7.63562 15.7547 7.51498 15.39 7.51498C15.0253 7.51498 14.6756 7.63562 14.4177 7.85035C14.1599 8.06508 14.015 8.35631 14.015 8.65998Z" fill="#FF8A14"/>
<path d="M4.765 7.17999C4.765 7.47836 4.90723 7.76451 5.16041 7.97549C5.41358 8.18647 5.75696 8.30499 6.115 8.30499C6.47304 8.30499 6.81642 8.18647 7.06959 7.97549C7.32277 7.76451 7.465 7.47836 7.465 7.17999C7.465 6.88162 7.32277 6.59548 7.06959 6.3845C6.81642 6.17352 6.47304 6.05499 6.115 6.05499C5.75696 6.05499 5.41358 6.17352 5.16041 6.3845C4.90723 6.59548 4.765 6.88162 4.765 7.17999Z" fill="#6DD627"/>
<path d="M9.50999 5.92999C9.50999 6.22836 9.66434 6.51451 9.93908 6.72549C10.2138 6.93647 10.5865 7.05499 10.975 7.05499C11.3635 7.05499 11.7362 6.93647 12.0109 6.72549C12.2856 6.51451 12.44 6.22836 12.44 5.92999C12.44 5.63162 12.2856 5.34548 12.0109 5.1345C11.7362 4.92352 11.3635 4.80499 10.975 4.80499C10.5865 4.80499 10.2138 4.92352 9.93908 5.1345C9.66434 5.34548 9.50999 5.63162 9.50999 5.92999Z" fill="#FFE500"/>
<path d="M14.69 13.24C14.9885 13.2169 15.2875 13.2782 15.5527 13.4171C15.818 13.5559 16.0389 13.7666 16.19 14.025C16.2428 13.9174 16.2717 13.7998 16.275 13.68C16.275 13.06 15.57 12.555 14.7 12.555C13.83 12.555 13.125 13.055 13.125 13.68C13.1265 13.7994 13.1538 13.9171 13.205 14.025C13.3554 13.7694 13.574 13.5606 13.8362 13.422C14.0984 13.2833 14.394 13.2203 14.69 13.24Z" fill="#E04122"/>
<path d="M15.39 8.19999C15.6627 8.18695 15.933 8.25628 16.1657 8.39896C16.3985 8.54164 16.5829 8.75106 16.695 8.99999C16.7388 8.89185 16.7625 8.77663 16.765 8.65999C16.7357 8.32413 16.5746 8.01353 16.317 7.79614C16.0593 7.57876 15.726 7.47227 15.39 7.49999C15.2224 7.48418 15.0534 7.50172 14.8926 7.55157C14.7319 7.60142 14.5826 7.68261 14.4534 7.79045C14.3242 7.89829 14.2176 8.03065 14.1397 8.17989C14.0619 8.32913 14.0144 8.4923 14 8.65999C14 8.7769 14.0238 8.89259 14.07 8.99999C14.183 8.74858 14.3698 8.53745 14.6055 8.39459C14.8412 8.25172 15.1148 8.18385 15.39 8.19999Z" fill="#EB6D00"/>
<path d="M6.115 6.74C6.38235 6.72807 6.64715 6.79647 6.87528 6.93638C7.10341 7.07629 7.28442 7.2813 7.395 7.525C7.43855 7.41505 7.46225 7.29824 7.465 7.18C7.43204 6.85309 7.27218 6.55214 7.01976 6.34179C6.76734 6.13144 6.4425 6.02847 6.115 6.055C5.7875 6.02847 5.46265 6.13144 5.21024 6.34179C4.95782 6.55214 4.79796 6.85309 4.765 7.18C4.76553 7.29848 4.78931 7.41569 4.835 7.525C4.94502 7.28088 5.12591 7.07548 5.35418 6.93549C5.58244 6.7955 5.84753 6.72739 6.115 6.74Z" fill="#46B000"/>
<path d="M11 5.5C11.2827 5.48305 11.5643 5.54812 11.8108 5.68738C12.0574 5.82664 12.2585 6.03417 12.39 6.285C12.4373 6.176 12.4628 6.0588 12.465 5.94C12.465 5.32 11.81 4.815 11 4.815C10.19 4.815 9.5 5.31 9.5 5.93C9.50224 6.0488 9.52772 6.166 9.575 6.275C9.70979 6.01983 9.91693 5.81015 10.1704 5.67228C10.424 5.5344 10.7126 5.47447 11 5.5Z" fill="#EBCB00"/>
<path d="M13.115 13.68C13.115 13.9784 13.2809 14.2645 13.5763 14.4755C13.8717 14.6865 14.2723 14.805 14.69 14.805C15.1077 14.805 15.5083 14.6865 15.8037 14.4755C16.0991 14.2645 16.265 13.9784 16.265 13.68C16.265 13.3816 16.0991 13.0955 15.8037 12.8845C15.5083 12.6735 15.1077 12.555 14.69 12.555C14.2723 12.555 13.8717 12.6735 13.5763 12.8845C13.2809 13.0955 13.115 13.3816 13.115 13.68V13.68Z" stroke="#45413C" stroke-width="0.5" stroke-linecap="round" stroke-linejoin="round"/>
<path d="M14.015 8.65998C14.015 8.96366 14.1599 9.25489 14.4177 9.46962C14.6756 9.68435 15.0253 9.80498 15.39 9.80498C15.7547 9.80498 16.1044 9.68435 16.3623 9.46962C16.6201 9.25489 16.765 8.96366 16.765 8.65998C16.765 8.35631 16.6201 8.06508 16.3623 7.85035C16.1044 7.63562 15.7547 7.51498 15.39 7.51498C15.0253 7.51498 14.6756 7.63562 14.4177 7.85035C14.1599 8.06508 14.015 8.35631 14.015 8.65998Z" stroke="#45413C" stroke-width="0.5" stroke-linecap="round" stroke-linejoin="round"/>
<path d="M4.765 7.17999C4.765 7.47836 4.90723 7.76451 5.16041 7.97549C5.41358 8.18647 5.75696 8.30499 6.115 8.30499C6.47304 8.30499 6.81642 8.18647 7.06959 7.97549C7.32277 7.76451 7.465 7.47836 7.465 7.17999C7.465 6.88162 7.32277 6.59548 7.06959 6.3845C6.81642 6.17352 6.47304 6.05499 6.115 6.05499C5.75696 6.05499 5.41358 6.17352 5.16041 6.3845C4.90723 6.59548 4.765 6.88162 4.765 7.17999V7.17999Z" stroke="#45413C" stroke-width="0.5" stroke-linecap="round" stroke-linejoin="round"/>
<path d="M9.50999 5.92999C9.50999 6.22836 9.66434 6.51451 9.93908 6.72549C10.2138 6.93647 10.5865 7.05499 10.975 7.05499C11.3635 7.05499 11.7362 6.93647 12.0109 6.72549C12.2856 6.51451 12.44 6.22836 12.44 5.92999C12.44 5.63162 12.2856 5.34548 12.0109 5.1345C11.7362 4.92352 11.3635 4.80499 10.975 4.80499C10.5865 4.80499 10.2138 4.92352 9.93908 5.1345C9.66434 5.34548 9.50999 5.63162 9.50999 5.92999V5.92999Z" stroke="#45413C" stroke-width="0.5" stroke-linecap="round" stroke-linejoin="round"/>
<path d="M19.17 8.58C18.908 8.49882 18.6254 8.51659 18.3756 8.62995C18.1259 8.7433 17.9264 8.94436 17.815 9.195L17.555 9.79C16.7811 11.5408 16.1734 13.3605 15.74 15.225L14.285 21.46C14.2266 21.662 14.2491 21.8787 14.3476 22.0645C14.4462 22.2502 14.6131 22.3903 14.813 22.4552C15.013 22.5202 15.2304 22.5048 15.4192 22.4124C15.6081 22.32 15.7536 22.1577 15.825 21.96L18.19 16C18.8988 14.2206 19.4411 12.3794 19.81 10.5L19.935 9.865C19.9894 9.5941 19.9412 9.31265 19.7999 9.07523C19.6585 8.83781 19.4341 8.66133 19.17 8.58Z" fill="#4ACFFF"/>
<path d="M15.175 22L16.63 15.75C17.0665 13.8847 17.674 12.0637 18.445 10.31L18.705 9.72C18.7961 9.51255 18.9483 9.33778 19.1412 9.21898C19.3342 9.10018 19.5587 9.04298 19.785 9.055C19.645 8.82681 19.4262 8.65782 19.17 8.58C18.908 8.49882 18.6254 8.51659 18.3756 8.62995C18.1258 8.7433 17.9264 8.94436 17.815 9.195L17.555 9.79C16.7811 11.5408 16.1734 13.3605 15.74 15.225L14.285 21.46C14.239 21.6586 14.2696 21.8671 14.3706 22.0441C14.4716 22.2212 14.6357 22.3536 14.83 22.415C14.9532 22.4449 15.0818 22.4449 15.205 22.415C15.1574 22.282 15.147 22.1385 15.175 22Z" fill="#80DDFF"/>
<path d="M19.17 8.58C18.908 8.49882 18.6254 8.51659 18.3756 8.62995C18.1259 8.7433 17.9264 8.94436 17.815 9.195L17.555 9.79C16.7811 11.5408 16.1734 13.3605 15.74 15.225L14.285 21.46C14.2266 21.662 14.2491 21.8787 14.3476 22.0645C14.4462 22.2502 14.6131 22.3903 14.813 22.4552C15.013 22.5202 15.2304 22.5048 15.4192 22.4124C15.6081 22.32 15.7536 22.1577 15.825 21.96L18.19 16C18.8988 14.2206 19.4411 12.3794 19.81 10.5L19.935 9.865C19.9894 9.5941 19.9412 9.31265 19.7999 9.07523C19.6585 8.83781 19.4341 8.66133 19.17 8.58V8.58Z" stroke="#45413C" stroke-width="0.5" stroke-linecap="round" stroke-linejoin="round"/>
<path d="M19.76 9.81C19.7956 9.8224 19.8336 9.82641 19.871 9.82172C19.9084 9.81703 19.9443 9.80376 19.9757 9.78295C20.0072 9.76215 20.0334 9.73436 20.0524 9.70176C20.0713 9.66916 20.0825 9.63263 20.085 9.595C20.1179 9.03327 20.2033 8.47584 20.34 7.93C20.4632 7.56565 20.6312 7.21799 20.84 6.895C20.955 6.72 20.8 6.475 20.525 6.395L19.3 6C19.025 5.91 18.76 6.025 18.75 6.235C18.7453 6.62224 18.6899 7.0072 18.585 7.38C18.3837 7.902 18.1343 8.40416 17.84 8.88C17.821 8.91271 17.8097 8.94929 17.807 8.98699C17.8042 9.0247 17.81 9.06254 17.824 9.09768C17.8379 9.13281 17.8597 9.16433 17.8876 9.18984C17.9154 9.21536 17.9488 9.23422 17.985 9.245L19.76 9.81Z" fill="#DAEDF7"/>
<path d="M18.57 9.25C18.8652 8.7747 19.1147 8.27245 19.315 7.75C19.425 7.37432 19.4872 6.98625 19.5 6.595C19.5 6.385 19.77 6.275 20.045 6.36L20.87 6.62C20.7985 6.50776 20.6881 6.42585 20.56 6.39L19.3 6C19.02 5.91 18.76 6.025 18.75 6.235C18.7453 6.62224 18.6899 7.0072 18.585 7.38C18.3837 7.902 18.1343 8.40416 17.84 8.88C17.821 8.91271 17.8097 8.94929 17.807 8.98699C17.8042 9.0247 17.81 9.06254 17.824 9.09768C17.8379 9.13281 17.8597 9.16433 17.8876 9.18984C17.9154 9.21536 17.9488 9.23422 17.985 9.245L18.545 9.42C18.5334 9.36215 18.5423 9.30207 18.57 9.25Z" fill="#E8F4FA"/>
<path d="M19.76 9.81C19.7956 9.8224 19.8336 9.82641 19.871 9.82172C19.9084 9.81703 19.9443 9.80376 19.9757 9.78295C20.0072 9.76215 20.0334 9.73436 20.0524 9.70176C20.0713 9.66916 20.0825 9.63263 20.085 9.595C20.1179 9.03327 20.2033 8.47584 20.34 7.93C20.4632 7.56565 20.6312 7.21799 20.84 6.895C20.955 6.72 20.8 6.475 20.525 6.395L19.3 6C19.025 5.91 18.76 6.025 18.75 6.235C18.7453 6.62224 18.6899 7.0072 18.585 7.38C18.3837 7.902 18.1343 8.40416 17.84 8.88C17.821 8.91271 17.8097 8.94929 17.807 8.98699C17.8042 9.0247 17.81 9.06254 17.824 9.09768C17.8379 9.13281 17.8597 9.16433 17.8876 9.18984C17.9154 9.21536 17.9488 9.23422 17.985 9.245L19.76 9.81Z" stroke="#45413C" stroke-width="0.5" stroke-linecap="round" stroke-linejoin="round"/>
</svg>
