<svg width="25" height="24" viewBox="0 0 25 24" fill="none" xmlns="http://www.w3.org/2000/svg">
<g clip-path="url(#clip0_226_64609)">
<path opacity="0.15" d="M5.5 22.75C5.5 22.8485 5.68106 22.946 6.03284 23.037C6.38463 23.128 6.90024 23.2107 7.55025 23.2803C8.20026 23.35 8.97194 23.4052 9.82122 23.4429C10.6705 23.4806 11.5807 23.5 12.5 23.5C13.4193 23.5 14.3295 23.4806 15.1788 23.4429C16.0281 23.4052 16.7997 23.35 17.4497 23.2803C18.0998 23.2107 18.6154 23.128 18.9672 23.037C19.3189 22.946 19.5 22.8485 19.5 22.75C19.5 22.6515 19.3189 22.554 18.9672 22.463C18.6154 22.372 18.0998 22.2893 17.4497 22.2197C16.7997 22.15 16.0281 22.0948 15.1788 22.0571C14.3295 22.0194 13.4193 22 12.5 22C11.5807 22 10.6705 22.0194 9.82122 22.0571C8.97194 22.0948 8.20026 22.15 7.55025 22.2197C6.90024 22.2893 6.38463 22.372 6.03284 22.463C5.68106 22.554 5.5 22.6515 5.5 22.75Z" fill="#45413C"/>
<path d="M4.85498 11.645C4.85498 12.649 5.05272 13.6431 5.43692 14.5706C5.82112 15.4981 6.38425 16.3409 7.09415 17.0508C7.80405 17.7607 8.64683 18.3239 9.57437 18.7081C10.5019 19.0923 11.496 19.29 12.5 19.29C13.5039 19.29 14.4981 19.0923 15.4256 18.7081C16.3531 18.3239 17.1959 17.7607 17.9058 17.0508C18.6157 16.3409 19.1788 15.4981 19.563 14.5706C19.9472 13.6431 20.145 12.649 20.145 11.645C20.145 10.641 19.9472 9.64692 19.563 8.71939C19.1788 7.79185 18.6157 6.94907 17.9058 6.23917C17.1959 5.52926 16.3531 4.96614 15.4256 4.58194C14.4981 4.19774 13.5039 4 12.5 4C11.496 4 10.5019 4.19774 9.57437 4.58194C8.64683 4.96614 7.80405 5.52926 7.09415 6.23917C6.38425 6.94907 5.82112 7.79185 5.43692 8.71939C5.05272 9.64692 4.85498 10.641 4.85498 11.645Z" fill="#BF8DF2"/>
<path d="M12.5 4C10.9879 4 9.50986 4.44837 8.25265 5.28841C6.99544 6.12846 6.01556 7.32244 5.43693 8.71939C4.85829 10.1163 4.7069 11.6535 5.00188 13.1365C5.29686 14.6194 6.02498 15.9817 7.09415 17.0508C8.16333 18.12 9.52553 18.8481 11.0085 19.1431C12.4915 19.4381 14.0287 19.2867 15.4256 18.7081C16.8225 18.1294 18.0165 17.1495 18.8566 15.8923C19.6966 14.6351 20.145 13.157 20.145 11.645C20.1437 9.61783 19.3378 7.67406 17.9044 6.24063C16.4709 4.8072 14.5272 4.00132 12.5 4ZM12.5 16.5C11.2829 16.5 10.093 16.1391 9.08097 15.463C8.06889 14.7869 7.27999 13.826 6.81399 12.7016C6.34798 11.5772 6.2258 10.3399 6.46289 9.14606C6.69997 7.95224 7.28569 6.85552 8.14598 5.99452C9.00627 5.13353 10.1025 4.54693 11.2961 4.30888C12.4898 4.07082 13.7272 4.192 14.8519 4.65709C15.9767 5.12218 16.9383 5.9103 17.6152 6.92183C18.2922 7.93336 18.654 9.12287 18.655 10.34C18.6556 11.1487 18.4969 11.9496 18.1879 12.697C17.8789 13.4443 17.4256 14.1234 16.854 14.6955C16.2824 15.2675 15.6036 15.7214 14.8566 16.031C14.1095 16.3406 13.3087 16.5 12.5 16.5Z" fill="#9F5AE5"/>
<path d="M4.85498 11.645C4.85498 12.649 5.05272 13.6431 5.43692 14.5706C5.82112 15.4981 6.38425 16.3409 7.09415 17.0508C7.80405 17.7607 8.64683 18.3239 9.57437 18.7081C10.5019 19.0923 11.496 19.29 12.5 19.29C13.5039 19.29 14.4981 19.0923 15.4256 18.7081C16.3531 18.3239 17.1959 17.7607 17.9058 17.0508C18.6157 16.3409 19.1788 15.4981 19.563 14.5706C19.9472 13.6431 20.145 12.649 20.145 11.645C20.145 10.641 19.9472 9.64692 19.563 8.71939C19.1788 7.79185 18.6157 6.94907 17.9058 6.23917C17.1959 5.52926 16.3531 4.96614 15.4256 4.58194C14.4981 4.19774 13.5039 4 12.5 4C11.496 4 10.5019 4.19774 9.57437 4.58194C8.64683 4.96614 7.80405 5.52926 7.09415 6.23917C6.38425 6.94907 5.82112 7.79185 5.43692 8.71939C5.05272 9.64692 4.85498 10.641 4.85498 11.645V11.645Z" stroke="#45413C" stroke-width="0.5" stroke-linecap="round" stroke-linejoin="round"/>
<path d="M13.62 9.03498C13.62 9.52961 13.8165 10.004 14.1662 10.3537C14.516 10.7035 14.9904 10.9 15.485 10.9C15.9796 10.9 16.454 10.7035 16.8038 10.3537C17.1535 10.004 17.35 9.52961 17.35 9.03498C17.35 8.54035 17.1535 8.06598 16.8038 7.71623C16.454 7.36647 15.9796 7.16998 15.485 7.16998C14.9904 7.16998 14.516 7.36647 14.1662 7.71623C13.8165 8.06598 13.62 8.54035 13.62 9.03498Z" fill="#DABFF5"/>
<path d="M11.38 9.96497C11.38 10.1135 11.439 10.2559 11.544 10.3609C11.649 10.466 11.7915 10.525 11.94 10.525C12.0885 10.525 12.231 10.466 12.336 10.3609C12.441 10.2559 12.5 10.1135 12.5 9.96497C12.5 9.81645 12.441 9.67401 12.336 9.56899C12.231 9.46397 12.0885 9.40497 11.94 9.40497C11.7915 9.40497 11.649 9.46397 11.544 9.56899C11.439 9.67401 11.38 9.81645 11.38 9.96497Z" fill="#DABFF5"/>
<path d="M11.385 6.98499C11.385 7.23164 11.483 7.46819 11.6574 7.6426C11.8318 7.81701 12.0684 7.91499 12.315 7.91499C12.5617 7.91499 12.7982 7.81701 12.9726 7.6426C13.147 7.46819 13.245 7.23164 13.245 6.98499C13.245 6.73834 13.147 6.50179 12.9726 6.32738C12.7982 6.15297 12.5617 6.05499 12.315 6.05499C12.0684 6.05499 11.8318 6.15297 11.6574 6.32738C11.483 6.50179 11.385 6.73834 11.385 6.98499Z" fill="#DABFF5"/>
<path d="M18.7401 19.84C18.8241 20.0067 18.8425 20.1989 18.7916 20.3786C18.7406 20.5582 18.6241 20.7122 18.4651 20.81C17.5801 21.36 15.6351 22.275 12.5001 22.275C9.36506 22.275 7.42006 21.36 6.53506 20.81C6.376 20.7122 6.25948 20.5582 6.20855 20.3786C6.15762 20.1989 6.176 20.0067 6.26006 19.84L7.46506 17.425C9.047 18.1451 10.762 18.5266 12.5001 18.545C14.2381 18.5266 15.9531 18.1451 17.5351 17.425L18.7401 19.84Z" fill="#BF8256"/>
<path d="M12.5 19.905C14.4618 19.8829 16.4059 19.5296 18.25 18.86L17.535 17.425C15.9531 18.1451 14.238 18.5266 12.5 18.545C10.762 18.5266 9.04694 18.1451 7.465 17.425L6.75 18.86C8.59414 19.5296 10.5382 19.8829 12.5 19.905Z" fill="#915E3A"/>
<path d="M18.7401 19.84C18.8241 20.0067 18.8425 20.1989 18.7916 20.3786C18.7406 20.5582 18.6241 20.7122 18.4651 20.81C17.5801 21.36 15.6351 22.275 12.5001 22.275C9.36506 22.275 7.42006 21.36 6.53506 20.81C6.376 20.7122 6.25948 20.5582 6.20855 20.3786C6.15762 20.1989 6.176 20.0067 6.26006 19.84L7.46506 17.425C9.047 18.1451 10.762 18.5266 12.5001 18.545C14.2381 18.5266 15.9531 18.1451 17.5351 17.425L18.7401 19.84Z" stroke="#45413C" stroke-width="0.5" stroke-linecap="round" stroke-linejoin="round"/>
<path d="M6.46006 7.77996C6.49983 7.61689 6.58394 7.46801 6.70306 7.34976C6.82219 7.23152 6.9717 7.14852 7.13506 7.10996L8.50006 6.79996C8.52472 6.79421 8.54665 6.78013 8.56214 6.76009C8.57762 6.74005 8.58572 6.71528 8.58506 6.68996C8.58551 6.66525 8.57723 6.64118 8.56169 6.62197C8.54614 6.60277 8.52432 6.58966 8.50006 6.58496L7.15506 6.26996C6.99095 6.233 6.84058 6.15054 6.7212 6.03204C6.60181 5.91353 6.51824 5.76378 6.48006 5.59996L6.15006 4.25496C6.14431 4.23029 6.13023 4.20837 6.11019 4.19288C6.09015 4.17739 6.06537 4.1693 6.04006 4.16996C6.01535 4.16951 5.99128 4.17778 5.97207 4.19333C5.95287 4.20888 5.93976 4.2307 5.93506 4.25496L5.62506 5.59996C5.58688 5.76378 5.5033 5.91353 5.38392 6.03204C5.26453 6.15054 5.11416 6.233 4.95006 6.26996L3.60506 6.58496C3.5808 6.58966 3.55898 6.60277 3.54343 6.62197C3.52788 6.64118 3.51961 6.66525 3.52006 6.68996C3.5194 6.71528 3.52749 6.74005 3.54298 6.76009C3.55846 6.78013 3.58039 6.79421 3.60506 6.79996L4.95006 7.10996C5.11341 7.14852 5.26292 7.23152 5.38205 7.34976C5.50118 7.46801 5.58528 7.61689 5.62506 7.77996L5.93506 9.12996C5.93976 9.15422 5.95287 9.17604 5.97207 9.19159C5.99128 9.20714 6.01535 9.21541 6.04006 9.21496C6.06537 9.21562 6.09015 9.20752 6.11019 9.19204C6.13023 9.17655 6.14431 9.15463 6.15006 9.12996L6.46006 7.77996Z" fill="white" stroke="#45413C" stroke-width="0.5" stroke-linecap="round" stroke-linejoin="round"/>
<path d="M18.26 4.36497L19.315 3.99997C19.3339 3.99219 19.3501 3.97905 19.3617 3.96218C19.3732 3.9453 19.3796 3.92542 19.38 3.90497C19.3803 3.88437 19.3742 3.86419 19.3625 3.84718C19.3509 3.83018 19.3343 3.81718 19.315 3.80997L18.445 3.51997C18.3866 3.50094 18.3335 3.46838 18.2901 3.42493C18.2466 3.38149 18.214 3.32839 18.195 3.26997L17.91 2.40497C17.9022 2.38607 17.8891 2.36984 17.8722 2.3583C17.8553 2.34675 17.8355 2.34038 17.815 2.33997C17.7944 2.3397 17.7742 2.3458 17.7572 2.35744C17.7402 2.36907 17.7272 2.38567 17.72 2.40497L17.43 3.26997C17.4117 3.32879 17.3794 3.38227 17.3359 3.42582C17.2923 3.46937 17.2388 3.50168 17.18 3.51997L16.315 3.80997C16.2957 3.81718 16.2791 3.83018 16.2675 3.84718C16.2558 3.86419 16.2497 3.88437 16.25 3.90497C16.2504 3.92542 16.2568 3.9453 16.2683 3.96218C16.2799 3.97905 16.2961 3.99219 16.315 3.99997L17.18 4.28497C17.2381 4.3047 17.2908 4.33751 17.3341 4.38085C17.3775 4.4242 17.4103 4.47693 17.43 4.53497L17.72 5.40497C17.7272 5.42428 17.7402 5.44088 17.7572 5.45251C17.7742 5.46415 17.7944 5.47025 17.815 5.46997C17.8355 5.46957 17.8553 5.4632 17.8722 5.45165C17.8891 5.44011 17.9022 5.42388 17.91 5.40497L18.26 4.36497Z" fill="white" stroke="#45413C" stroke-width="0.5" stroke-linecap="round" stroke-linejoin="round"/>
<path d="M23.105 15.18L24.16 14.83C24.1798 14.823 24.1971 14.8102 24.2096 14.7933C24.2221 14.7763 24.2292 14.756 24.23 14.735C24.2299 14.7138 24.2231 14.6931 24.2105 14.6761C24.1979 14.659 24.1802 14.6464 24.16 14.64L23.295 14.35C23.2366 14.331 23.1835 14.2984 23.14 14.2549C23.0966 14.2115 23.064 14.1584 23.045 14.1L22.755 13.235C22.7478 13.2157 22.7348 13.1991 22.7178 13.1875C22.7008 13.1758 22.6806 13.1697 22.66 13.17C22.6399 13.1692 22.6201 13.1752 22.6038 13.187C22.5874 13.1987 22.5755 13.2157 22.57 13.235L22.28 14.1C22.2609 14.1584 22.2284 14.2115 22.1849 14.2549C22.1415 14.2984 22.0884 14.331 22.03 14.35L21.165 14.64C21.1447 14.6464 21.127 14.659 21.1145 14.6761C21.1019 14.6931 21.0951 14.7138 21.095 14.735C21.0958 14.756 21.1029 14.7763 21.1154 14.7933C21.1278 14.8102 21.1451 14.823 21.165 14.83L22.03 15.115C22.088 15.1347 22.1407 15.1675 22.1841 15.2109C22.2274 15.2542 22.2602 15.3069 22.28 15.365L22.57 16.235C22.5755 16.2543 22.5874 16.2712 22.6038 16.283C22.6201 16.2948 22.6399 16.3008 22.66 16.3C22.6806 16.3003 22.7008 16.2942 22.7178 16.2825C22.7348 16.2709 22.7478 16.2543 22.755 16.235L23.105 15.18Z" fill="white" stroke="#45413C" stroke-width="0.5" stroke-linecap="round" stroke-linejoin="round"/>
<path d="M2.78502 17.415L3.83502 17.065C3.85526 17.0586 3.87294 17.046 3.88553 17.0289C3.89811 17.0118 3.90494 16.9912 3.90502 16.97C3.90466 16.9494 3.89764 16.9296 3.88502 16.9133C3.8724 16.8971 3.85485 16.8854 3.83502 16.88L2.97002 16.59C2.91251 16.5693 2.86028 16.5362 2.81707 16.4929C2.77385 16.4497 2.74071 16.3975 2.72002 16.34L2.43002 15.5C2.42461 15.4802 2.41292 15.4626 2.39669 15.45C2.38046 15.4374 2.36058 15.4304 2.34002 15.43C2.31881 15.4301 2.29817 15.4369 2.28109 15.4495C2.26402 15.4621 2.25138 15.4798 2.24502 15.5L1.95502 16.365C1.93529 16.423 1.90249 16.4758 1.85914 16.5191C1.81579 16.5625 1.76306 16.5953 1.70502 16.615L0.84002 16.905C0.820184 16.9104 0.802639 16.9221 0.790017 16.9383C0.777395 16.9546 0.770378 16.9744 0.77002 16.995C0.770103 17.0162 0.77693 17.0368 0.789513 17.0539C0.802096 17.071 0.819784 17.0836 0.84002 17.09L1.70502 17.38C1.76344 17.399 1.81653 17.4316 1.85998 17.475C1.90342 17.5185 1.93599 17.5716 1.95502 17.63L2.24502 18.495C2.25138 18.5152 2.26402 18.5329 2.28109 18.5455C2.29817 18.5581 2.31881 18.5649 2.34002 18.565C2.36058 18.5646 2.38046 18.5576 2.39669 18.545C2.41292 18.5324 2.42461 18.5148 2.43002 18.495L2.78502 17.415Z" fill="white" stroke="#45413C" stroke-width="0.5" stroke-linecap="round" stroke-linejoin="round"/>
</g>
<defs>
<clipPath id="clip0_226_64609">
<rect width="24" height="24" fill="white" transform="translate(0.5)"/>
</clipPath>
</defs>
</svg>
