<svg width="25" height="24" viewBox="0 0 25 24" fill="none" xmlns="http://www.w3.org/2000/svg">
<path d="M11.87 20.795C12.0517 20.9313 12.2728 21.005 12.5 21.005C12.7272 21.005 12.9482 20.9313 13.13 20.795C15.13 19.295 21.37 14.39 22.4 10.125C23.63 5.00001 20.5 1.88501 17.45 1.88501C15.23 1.88501 13.615 3.45001 12.905 4.30001C12.8586 4.36404 12.7977 4.41616 12.7273 4.45211C12.6569 4.48805 12.579 4.50679 12.5 4.50679C12.4209 4.50679 12.343 4.48805 12.2726 4.45211C12.2022 4.41616 12.1413 4.36404 12.095 4.30001C11.385 3.45001 9.76997 1.88501 7.54997 1.88501C4.49997 1.88501 1.36997 5.00001 2.59997 10.125C3.62997 14.39 9.85497 19.3 11.87 20.795Z" fill="#FFCCDD" stroke="#FFB0CA" stroke-width="0.5" stroke-linecap="round" stroke-linejoin="round"/>
<path d="M12.045 18.24C12.1757 18.3398 12.3355 18.3938 12.5 18.3938C12.6644 18.3938 12.8243 18.3398 12.955 18.24C14.42 17.155 18.955 13.585 19.695 10.485C20.585 6.77502 18.31 4.48502 16.095 4.48502C14.485 4.48502 13.31 5.62002 12.795 6.24002C12.7588 6.28311 12.7137 6.31776 12.6627 6.34153C12.6118 6.36531 12.5562 6.37763 12.5 6.37763C12.4437 6.37763 12.3882 6.36531 12.3372 6.34153C12.2862 6.31776 12.2411 6.28311 12.205 6.24002C11.69 5.63502 10.5 4.50002 8.90497 4.50002C6.68997 4.50002 4.40497 6.77502 5.30497 10.5C6.05497 13.585 10.58 17.155 12.045 18.24Z" fill="#FFB0CA" stroke="#FF87AF" stroke-width="0.5" stroke-linecap="round" stroke-linejoin="round"/>
<path opacity="0.7" d="M6.75 22.75C6.75 22.9489 7.3558 23.1397 8.43414 23.2803C9.51247 23.421 10.975 23.5 12.5 23.5C14.025 23.5 15.4875 23.421 16.5659 23.2803C17.6442 23.1397 18.25 22.9489 18.25 22.75C18.25 22.5511 17.6442 22.3603 16.5659 22.2197C15.4875 22.079 14.025 22 12.5 22C10.975 22 9.51247 22.079 8.43414 22.2197C7.3558 22.3603 6.75 22.5511 6.75 22.75Z" fill="#FFE5EE"/>
<path d="M12.205 15.835C12.2906 15.8976 12.3939 15.9313 12.5 15.9313C12.606 15.9313 12.7093 15.8976 12.795 15.835C13.74 15.13 16.66 12.835 17.145 10.835C17.72 8.44 16.25 6.97 14.82 6.97C14.4045 6.99643 13.9996 7.11138 13.6322 7.30714C13.2648 7.50289 12.9436 7.77492 12.69 8.105C12.667 8.13322 12.638 8.15597 12.6051 8.17159C12.5723 8.18722 12.5363 8.19532 12.5 8.19532C12.4636 8.19532 12.4276 8.18722 12.3948 8.17159C12.3619 8.15597 12.3329 8.13322 12.31 8.105C12.0563 7.77492 11.7351 7.50289 11.3677 7.30714C11.0003 7.11138 10.5954 6.99643 10.18 6.97C8.74995 6.97 7.27995 8.44 7.85495 10.835C8.33995 12.825 11.26 15.13 12.205 15.835Z" fill="#FF6196"/>
<path d="M14.82 6.96002C14.4045 6.98645 13.9996 7.1014 13.6322 7.29716C13.2648 7.49291 12.9436 7.76495 12.69 8.09502C12.667 8.12324 12.638 8.14599 12.6051 8.16162C12.5723 8.17724 12.5363 8.18534 12.5 8.18534C12.4636 8.18534 12.4276 8.17724 12.3948 8.16162C12.3619 8.14599 12.3329 8.12324 12.31 8.09502C12.0563 7.76495 11.7351 7.49291 11.3677 7.29716C11.0003 7.1014 10.5954 6.98645 10.18 6.96002C8.74995 6.96002 7.27995 8.43002 7.85495 10.825C7.98018 11.2803 8.17769 11.7124 8.43995 12.105C8.40716 12.0233 8.37878 11.9398 8.35495 11.855C7.85495 9.93502 9.14995 8.75502 10.425 8.75502C11.2061 8.77016 11.9506 9.08947 12.5 9.64502C13.0493 9.08947 13.7938 8.77016 14.575 8.75502C15.85 8.75502 17.165 9.93502 16.645 11.855C16.622 11.9384 16.5936 12.0203 16.56 12.1C16.823 11.7097 17.0206 11.279 17.145 10.825C17.72 8.43002 16.25 6.96002 14.82 6.96002Z" fill="#FF87AF"/>
<path d="M12.205 15.835C12.2906 15.8976 12.3939 15.9313 12.5 15.9313C12.606 15.9313 12.7093 15.8976 12.795 15.835C13.74 15.13 16.66 12.835 17.145 10.835C17.72 8.44 16.25 6.97 14.82 6.97C14.4045 6.99643 13.9996 7.11138 13.6322 7.30714C13.2648 7.50289 12.9436 7.77492 12.69 8.105C12.667 8.13322 12.638 8.15597 12.6051 8.17159C12.5723 8.18722 12.5363 8.19532 12.5 8.19532C12.4636 8.19532 12.4276 8.18722 12.3948 8.17159C12.3619 8.15597 12.3329 8.13322 12.31 8.105C12.0563 7.77492 11.7351 7.50289 11.3677 7.30714C11.0003 7.11138 10.5954 6.99643 10.18 6.97C8.74995 6.97 7.27995 8.44 7.85495 10.835C8.33995 12.825 11.26 15.13 12.205 15.835Z" stroke="#45413C" stroke-width="0.5" stroke-linecap="round" stroke-linejoin="round"/>
</svg>
