<svg width="25" height="24" viewBox="0 0 25 24" fill="none" xmlns="http://www.w3.org/2000/svg">
<path d="M16.61 21.5H8.37502C8.25576 21.5091 8.13601 21.4902 8.0254 21.4446C7.91478 21.3991 7.81639 21.3283 7.7381 21.2379C7.65982 21.1474 7.60384 21.0399 7.57465 20.9239C7.54545 20.8079 7.54387 20.6867 7.57002 20.57L9.00002 15.655H13.645C14.4289 15.6218 15.1993 15.8664 15.8204 16.3457C16.4415 16.825 16.8734 17.5083 17.04 18.275L17.425 20.65C17.4352 20.7611 17.4213 20.8732 17.3845 20.9786C17.3476 21.0839 17.2885 21.1802 17.2113 21.2607C17.134 21.3413 17.0403 21.4044 16.9366 21.4456C16.8329 21.4869 16.7215 21.5054 16.61 21.5Z" fill="#E0E0E0"/>
<path d="M13.655 15.655H8.99999L8.23499 18.3C9.83999 18.515 12.18 18.56 13.67 18C14.5987 17.6904 15.4988 17.3006 16.36 16.835C16.0179 16.4586 15.6 16.1589 15.1338 15.9555C14.6676 15.7521 14.1636 15.6497 13.655 15.655Z" fill="#BDBEC0"/>
<path d="M16.61 21.5H8.37502C8.25576 21.5091 8.13601 21.4902 8.0254 21.4446C7.91478 21.3991 7.81639 21.3283 7.7381 21.2379C7.65982 21.1474 7.60384 21.0399 7.57465 20.9239C7.54545 20.8079 7.54387 20.6867 7.57002 20.57L9.00002 15.655H13.645C14.4289 15.6218 15.1993 15.8664 15.8204 16.3457C16.4415 16.825 16.8734 17.5083 17.04 18.275L17.425 20.65C17.4352 20.7611 17.4213 20.8732 17.3845 20.9786C17.3476 21.0839 17.2885 21.1802 17.2113 21.2607C17.134 21.3413 17.0403 21.4044 16.9366 21.4456C16.8329 21.4869 16.7215 21.5054 16.61 21.5Z" stroke="#45413C" stroke-width="0.5" stroke-linecap="round" stroke-linejoin="round"/>
<path d="M6.64 16.645C7.685 17.2 11.14 17.73 13.035 16.645C14.93 15.56 15.735 14.99 15.78 14.645C15.825 14.3 16.475 7.64499 16.955 5.19999C17.435 2.75499 16.65 1.71499 15 1.49999C14.3084 1.42872 13.6096 1.49592 12.9443 1.69766C12.279 1.8994 11.6605 2.23164 11.125 2.67499C10.388 3.36201 9.70433 4.10416 9.08 4.89499C8.645 5.54999 9.21 6.85499 9.21 6.85499C9.21 6.85499 7.425 11.6 7.035 13.425C6.645 15.25 6.225 16.42 6.64 16.645Z" fill="#BDBEC0"/>
<path d="M15 1.49999C14.3084 1.42872 13.6096 1.49592 12.9443 1.69766C12.279 1.8994 11.6605 2.23164 11.125 2.67499C10.388 3.36201 9.70431 4.10416 9.07998 4.89499C8.71498 5.44499 9.07998 6.44499 9.16998 6.75499C10.5047 6.21134 11.9485 5.9887 13.385 6.10499C14.5207 6.29533 15.6203 6.65961 16.645 7.18499C16.75 6.40499 16.86 5.70999 16.96 5.18499C17.43 2.75999 16.65 1.71499 15 1.49999Z" fill="#87898C"/>
<path d="M15 1.49999C14.3084 1.42872 13.6096 1.49592 12.9443 1.69766C12.2789 1.8994 11.6605 2.23164 11.125 2.67499C10.3879 3.36201 9.70429 4.10416 9.07996 4.89499C9.73496 4.11499 12.78 3.67499 13.475 3.89499C14.17 4.11499 14.61 5.67999 14.61 5.67999C14.61 5.67999 13.39 9.55499 12.27 12.34C11.15 15.125 10.17 17.27 9.42996 17.26C10.6664 17.3897 11.9148 17.1788 13.04 16.65C14.955 15.56 15.74 14.995 15.785 14.65C15.83 14.305 16.48 7.64999 16.96 5.20499C17.44 2.75999 16.65 1.71499 15 1.49999Z" fill="#E0E0E0"/>
<path d="M15 2.89998C16.125 3.04998 16.845 3.57998 17.045 4.67498C17.315 2.60998 16.545 1.67498 15 1.49498C14.3084 1.42372 13.6096 1.49092 12.9443 1.69266C12.2789 1.8944 11.6605 2.22664 11.125 2.66998C10.3879 3.35701 9.70429 4.09915 9.07996 4.88998C9.39496 4.50998 10.275 4.21498 11.175 4.03498C12.2494 3.16509 13.625 2.7569 15 2.89998Z" fill="white"/>
<path opacity="0.15" d="M6.495 22.215C6.495 22.4232 7.12766 22.6229 8.25382 22.7701C9.37997 22.9173 10.9074 23 12.5 23C14.0926 23 15.62 22.9173 16.7462 22.7701C17.8723 22.6229 18.505 22.4232 18.505 22.215C18.505 22.0068 17.8723 21.8071 16.7462 21.6599C15.62 21.5127 14.0926 21.43 12.5 21.43C10.9074 21.43 9.37997 21.5127 8.25382 21.6599C7.12766 21.8071 6.495 22.0068 6.495 22.215Z" fill="#45413C"/>
<path d="M6.64 16.645C7.685 17.2 11.14 17.73 13.035 16.645C14.93 15.56 15.735 14.99 15.78 14.645C15.825 14.3 16.475 7.64499 16.955 5.19999C17.435 2.75499 16.65 1.71499 15 1.49999C14.3084 1.42872 13.6096 1.49592 12.9443 1.69766C12.279 1.8994 11.6605 2.23164 11.125 2.67499C10.388 3.36201 9.70433 4.10416 9.08 4.89499C8.645 5.54999 9.21 6.85499 9.21 6.85499C9.21 6.85499 7.425 11.6 7.035 13.425C6.645 15.25 6.225 16.42 6.64 16.645Z" stroke="#45413C" stroke-width="0.5" stroke-linecap="round" stroke-linejoin="round"/>
<path d="M15 1.49999C14.3084 1.42872 13.6096 1.49592 12.9443 1.69766C12.2789 1.8994 11.6605 2.23164 11.125 2.67499C10.3879 3.36201 9.70429 4.10416 9.07996 4.89499C9.73496 4.11499 12.78 3.67499 13.475 3.89499C14.17 4.11499 14.61 5.67999 14.61 5.67999C14.61 5.67999 13.39 9.55499 12.27 12.34C11.15 15.125 10.17 17.27 9.42996 17.26C10.6664 17.3897 11.9148 17.1788 13.04 16.65C14.955 15.56 15.74 14.995 15.785 14.65C15.83 14.305 16.48 7.64999 16.96 5.20499C17.44 2.75999 16.65 1.71499 15 1.49999Z" stroke="#45413C" stroke-width="0.5" stroke-linecap="round" stroke-linejoin="round"/>
<path d="M10.5 4.89001C10.5 4.89001 7.93501 7.89001 7.24001 8.89001C6.54501 9.89001 6.41501 10.325 6.45501 10.85C6.49501 11.375 7.50001 11.685 7.50001 11.685C7.50001 11.685 10.19 11.375 10.5 10.985C10.81 10.595 12.255 6.06501 12.255 6.06501C12.2314 5.86572 12.1649 5.67391 12.0601 5.50276C11.9553 5.33161 11.8147 5.18518 11.648 5.07353C11.4812 4.96189 11.2923 4.88767 11.0941 4.85599C10.8959 4.82431 10.6933 4.83592 10.5 4.89001Z" fill="#E0E0E0"/>
<path d="M9.78998 10.44C8.70998 10.095 6.93498 9.86498 6.52498 10.225C6.46619 10.4295 6.44584 10.6431 6.46498 10.855C6.50998 11.355 7.51498 11.685 7.51498 11.685C7.51498 11.685 10.205 11.375 10.515 10.985L10.57 10.895C10.3467 10.6876 10.0804 10.5322 9.78998 10.44Z" fill="#87898C"/>
<path d="M10.5 4.89001C10.5 4.89001 7.93501 7.89001 7.24001 8.89001C6.54501 9.89001 6.41501 10.325 6.45501 10.85C6.49501 11.375 7.50001 11.685 7.50001 11.685C7.50001 11.685 10.19 11.375 10.5 10.985C10.81 10.595 12.255 6.06501 12.255 6.06501C12.2314 5.86572 12.1649 5.67391 12.0601 5.50276C11.9553 5.33161 11.8147 5.18518 11.648 5.07353C11.4812 4.96189 11.2923 4.88767 11.0941 4.85599C10.8959 4.82431 10.6933 4.83592 10.5 4.89001V4.89001Z" stroke="#45413C" stroke-width="0.5" stroke-linecap="round" stroke-linejoin="round"/>
<path d="M16.85 2.67C16.85 2.67 14.17 10.025 14.5 11.115C14.6265 11.4587 14.8262 11.7708 15.0852 12.0298C15.3441 12.2888 15.6563 12.4884 16 12.615C16 12.615 16.585 12.615 16.86 11.235C17.135 9.855 18.13 4.325 17.825 3.325C17.52 2.325 16.85 2.67 16.85 2.67Z" fill="#E0E0E0"/>
<path d="M17.135 4.85C17.38 5.235 17.45 6.48 17.44 7.89C17.745 5.965 18 3.89 17.825 3.325C17.52 2.325 16.85 2.67 16.85 2.67C16.85 2.67 16.61 3.34 16.275 4.3C16.4546 4.30598 16.6292 4.36021 16.7805 4.45699C16.9318 4.55377 17.0543 4.68953 17.135 4.85Z" fill="#F0F0F0"/>
<path d="M16.85 2.67C16.85 2.67 14.17 10.025 14.5 11.115C14.6265 11.4587 14.8262 11.7708 15.0852 12.0298C15.3441 12.2888 15.6563 12.4884 16 12.615C16 12.615 16.585 12.615 16.86 11.235C17.135 9.855 18.13 4.325 17.825 3.325C17.52 2.325 16.85 2.67 16.85 2.67Z" stroke="#45413C" stroke-width="0.5" stroke-linecap="round" stroke-linejoin="round"/>
<path d="M6.93506 13.85C6.93506 13.85 9.13506 13.665 9.78506 13.85" stroke="#45413C" stroke-width="0.5" stroke-linecap="round" stroke-linejoin="round"/>
</svg>
