<svg width="25" height="24" viewBox="0 0 25 24" fill="none" xmlns="http://www.w3.org/2000/svg">
<g clip-path="url(#clip0_226_45096)">
<path opacity="0.15" d="M6.80499 21.75C6.80499 21.9489 7.51615 22.1397 8.78202 22.2803C10.0479 22.421 11.7648 22.5 13.555 22.5C15.3452 22.5 17.0621 22.421 18.328 22.2803C19.5938 22.1397 20.305 21.9489 20.305 21.75C20.305 21.5511 19.5938 21.3603 18.328 21.2197C17.0621 21.079 15.3452 21 13.555 21C11.7648 21 10.0479 21.079 8.78202 21.2197C7.51615 21.3603 6.80499 21.5511 6.80499 21.75Z" fill="#45413C"/>
<path d="M0.75 19.545C0.75 19.6376 0.768235 19.7293 0.803665 19.8148C0.839094 19.9003 0.891024 19.978 0.95649 20.0435C1.02196 20.109 1.09967 20.1609 1.18521 20.1963C1.27074 20.2318 1.36242 20.25 1.455 20.25C1.54758 20.25 1.63926 20.2318 1.72479 20.1963C1.81033 20.1609 1.88804 20.109 1.95351 20.0435C2.01898 19.978 2.07091 19.9003 2.10634 19.8148C2.14176 19.7293 2.16 19.6376 2.16 19.545C2.16 19.4524 2.14176 19.3607 2.10634 19.2752C2.07091 19.1897 2.01898 19.112 1.95351 19.0465C1.88804 18.981 1.81033 18.9291 1.72479 18.8937C1.63926 18.8582 1.54758 18.84 1.455 18.84C1.36242 18.84 1.27074 18.8582 1.18521 18.8937C1.09967 18.9291 1.02196 18.981 0.95649 19.0465C0.891024 19.112 0.839094 19.1897 0.803665 19.2752C0.768235 19.3607 0.75 19.4524 0.75 19.545Z" fill="white" stroke="#45413C" stroke-width="0.5" stroke-linecap="round" stroke-linejoin="round"/>
<path d="M4.865 16.6C4.55337 16.6 4.25451 16.7238 4.03415 16.9441C3.8138 17.1645 3.69 17.4634 3.69 17.775C3.69 18.0866 3.8138 18.3855 4.03415 18.6058C4.25451 18.8262 4.55337 18.95 4.865 18.95C5.00822 19.1595 5.21567 19.3167 5.45606 19.398C5.69645 19.4793 5.95675 19.4802 6.19772 19.4007C6.43868 19.3211 6.64725 19.1653 6.79196 18.9569C6.93668 18.7484 7.00969 18.4986 7 18.245C7.00075 18.083 6.96665 17.9227 6.9 17.775C6.96665 17.6273 7.00075 17.467 7 17.305C7.006 17.0531 6.93087 16.806 6.7857 16.6C6.64053 16.3941 6.43301 16.2403 6.19377 16.1613C5.95452 16.0823 5.69621 16.0823 5.45696 16.1613C5.21771 16.2403 5.01018 16.3941 4.865 16.6Z" fill="white"/>
<path d="M5.33499 18.305C5.27895 18.2487 5.20425 18.2149 5.12499 18.21C4.81331 18.1748 4.52815 18.0179 4.33152 17.7735C4.13489 17.5291 4.04269 17.217 4.07499 16.905C3.90162 17.0659 3.78059 17.2751 3.72759 17.5056C3.67458 17.7361 3.69206 17.9772 3.77776 18.1976C3.86345 18.418 4.0134 18.6076 4.20816 18.7418C4.40292 18.8759 4.6335 18.9485 4.86999 18.95C5.00917 19.1467 5.20546 19.2958 5.43225 19.3772C5.65904 19.4586 5.90537 19.4683 6.13786 19.405C6.37035 19.3417 6.57775 19.2084 6.73197 19.0233C6.88618 18.8382 6.97975 18.6101 6.99999 18.37C6.88757 18.4773 6.75473 18.561 6.60935 18.6159C6.46398 18.6709 6.30904 18.6961 6.15373 18.6901C5.99842 18.684 5.84591 18.6468 5.70527 18.5807C5.56462 18.5145 5.4387 18.4208 5.33499 18.305Z" fill="#F0F0F0"/>
<path d="M4.865 16.6C4.55337 16.6 4.25451 16.7238 4.03415 16.9441C3.8138 17.1645 3.69 17.4634 3.69 17.775C3.69 18.0866 3.8138 18.3855 4.03415 18.6058C4.25451 18.8262 4.55337 18.95 4.865 18.95C5.00822 19.1595 5.21567 19.3167 5.45606 19.398C5.69645 19.4793 5.95675 19.4802 6.19772 19.4007C6.43868 19.3211 6.64725 19.1653 6.79196 18.9569C6.93668 18.7484 7.00969 18.4986 7 18.245C7.00075 18.083 6.96665 17.9227 6.9 17.775C6.96665 17.6273 7.00075 17.467 7 17.305C7.006 17.0531 6.93087 16.806 6.7857 16.6C6.64053 16.3941 6.43301 16.2403 6.19377 16.1613C5.95452 16.0823 5.69621 16.0823 5.45696 16.1613C5.21771 16.2403 5.01018 16.3941 4.865 16.6V16.6Z" stroke="#45413C" stroke-width="0.5" stroke-linecap="round" stroke-linejoin="round"/>
<path d="M24.25 9.27999C24.2503 8.79657 24.0846 8.32769 23.7806 7.9518C23.4767 7.57591 23.0528 7.3158 22.58 7.21499C22.6348 6.8112 22.5715 6.40019 22.3977 6.03161C22.2239 5.66303 21.9472 5.35265 21.6008 5.13797C21.2545 4.92329 20.8534 4.81349 20.4459 4.82183C20.0385 4.83018 19.6423 4.95631 19.305 5.18499C19.3325 4.75733 19.2291 4.33144 19.0086 3.96398C18.7881 3.59651 18.461 3.3049 18.0707 3.12794C17.6804 2.95097 17.2454 2.89705 16.8237 2.97333C16.402 3.04962 16.0136 3.25251 15.71 3.55499C15.588 3.11019 15.3232 2.71777 14.9565 2.43807C14.5897 2.15838 14.1413 2.00688 13.68 2.00688C13.2188 2.00688 12.7703 2.15838 12.4035 2.43807C12.0368 2.71777 11.772 3.11019 11.65 3.55499C11.3472 3.25158 10.9589 3.04786 10.5371 2.97109C10.1154 2.89431 9.68024 2.94814 9.2899 3.12537C8.89956 3.30259 8.57264 3.59478 8.35286 3.96284C8.13307 4.3309 8.0309 4.75729 8.06001 5.18499C7.7088 4.947 7.29426 4.81985 6.87001 4.81999C6.56856 4.81832 6.27031 4.88173 5.99561 5.00588C5.72091 5.13003 5.47623 5.312 5.2783 5.53937C5.08036 5.76673 4.93383 6.03414 4.84869 6.32332C4.76356 6.6125 4.74184 6.91665 4.78501 7.21499C4.30461 7.31914 3.87565 7.58775 3.57218 7.97445C3.26871 8.36116 3.10977 8.84168 3.12281 9.33306C3.13585 9.82445 3.32005 10.2959 3.6436 10.6659C3.96716 11.036 4.40976 11.2815 4.89501 11.36C4.73187 11.7807 4.70788 12.2426 4.82655 12.6779C4.94523 13.1132 5.20032 13.499 5.55439 13.7787C5.90846 14.0583 6.34285 14.2172 6.79381 14.2318C7.24477 14.2464 7.68855 14.1161 8.06001 13.86C8.02629 14.3042 8.13473 14.7477 8.36965 15.1262C8.60457 15.5048 8.9538 15.7988 9.36684 15.9658C9.77987 16.1328 10.2353 16.1641 10.6673 16.0552C11.0993 15.9463 11.4855 15.7028 11.77 15.36C11.9382 15.7258 12.2078 16.0357 12.5468 16.2529C12.8857 16.4701 13.2799 16.5856 13.6825 16.5856C14.0851 16.5856 14.4793 16.4701 14.8183 16.2529C15.1572 16.0357 15.4268 15.7258 15.595 15.36C15.8795 15.7028 16.2657 15.9463 16.6977 16.0552C17.1297 16.1641 17.5852 16.1328 17.9982 15.9658C18.4112 15.7988 18.7604 15.5048 18.9954 15.1262C19.2303 14.7477 19.3387 14.3042 19.305 13.86C19.6765 14.114 20.1195 14.2426 20.5693 14.2269C21.0191 14.2113 21.4521 14.0522 21.8051 13.773C22.1581 13.4937 22.4125 13.109 22.5312 12.6748C22.6499 12.2407 22.6267 11.78 22.465 11.36C22.9615 11.2826 23.414 11.0306 23.7412 10.6493C24.0685 10.268 24.2489 9.78244 24.25 9.27999Z" fill="white"/>
<path d="M23.905 8.135C23.6975 8.26565 23.5252 8.44518 23.4032 8.65787C23.2811 8.87056 23.2131 9.10992 23.205 9.355C23.1905 9.67778 23.1075 9.99378 22.9615 10.2821C22.8156 10.5703 22.6101 10.8243 22.3586 11.0271C22.107 11.2299 21.8153 11.377 21.5026 11.4585C21.19 11.54 20.8636 11.5542 20.545 11.5C20.336 11.4621 20.1202 11.5002 19.9368 11.6075C19.7534 11.7148 19.6144 11.8842 19.545 12.085C19.3771 12.5052 19.0864 12.865 18.7109 13.1174C18.3354 13.3698 17.8925 13.5031 17.44 13.5C17.0439 13.5001 16.6552 13.3929 16.315 13.19C16.1578 13.0992 15.9753 13.0619 15.795 13.0835C15.6148 13.1051 15.4464 13.1846 15.315 13.31C15.1068 13.528 14.8566 13.7015 14.5794 13.82C14.3023 13.9385 14.004 13.9996 13.7025 13.9996C13.4011 13.9996 13.1028 13.9385 12.8256 13.82C12.5485 13.7015 12.2982 13.528 12.09 13.31C11.9587 13.1846 11.7903 13.1051 11.61 13.0835C11.4297 13.0619 11.2473 13.0992 11.09 13.19C10.7496 13.3923 10.361 13.4993 9.96503 13.5C9.50848 13.5004 9.06261 13.3619 8.68663 13.1029C8.31065 12.844 8.02236 12.4767 7.86003 12.05C7.78976 11.8498 7.65062 11.681 7.46745 11.5739C7.28429 11.4667 7.06901 11.4281 6.86003 11.465C6.54348 11.519 6.21909 11.5056 5.90811 11.4255C5.59712 11.3455 5.30655 11.2006 5.05543 11.0005C4.80431 10.8003 4.59829 10.5494 4.45088 10.2641C4.30347 9.97883 4.21799 9.66562 4.20003 9.345C4.19196 9.09992 4.12393 8.86055 4.00189 8.64787C3.87986 8.43518 3.70754 8.25565 3.50003 8.125C3.2757 8.46479 3.15576 8.86283 3.15503 9.27C3.15599 9.77172 3.33569 10.2567 3.66191 10.6379C3.98812 11.0191 4.43949 11.2715 4.93503 11.35C4.77189 11.7707 4.7479 12.2326 4.86657 12.6679C4.98525 13.1032 5.24034 13.489 5.59441 13.7687C5.94847 14.0483 6.38287 14.2072 6.83383 14.2218C7.28479 14.2364 7.72857 14.1061 8.10003 13.85C8.06631 14.2942 8.17475 14.7377 8.40967 15.1162C8.64459 15.4948 8.99382 15.7888 9.40685 15.9558C9.81989 16.1228 10.2753 16.1541 10.7073 16.0452C11.1393 15.9363 11.5255 15.6928 11.81 15.35C11.9782 15.7158 12.2478 16.0257 12.5868 16.2429C12.9258 16.4601 13.3199 16.5756 13.7225 16.5756C14.1251 16.5756 14.5193 16.4601 14.8583 16.2429C15.1973 16.0257 15.4668 15.7158 15.635 15.35C15.9195 15.6928 16.3057 15.9363 16.7377 16.0452C17.1697 16.1541 17.6252 16.1228 18.0382 15.9558C18.4512 15.7888 18.8005 15.4948 19.0354 15.1162C19.2703 14.7377 19.3787 14.2942 19.345 13.85C19.7165 14.104 20.1596 14.2326 20.6094 14.217C21.0592 14.2013 21.4922 14.0422 21.8451 13.763C22.1981 13.4838 22.4525 13.099 22.5712 12.6648C22.69 12.2307 22.6668 11.77 22.505 11.35C23.0015 11.2726 23.454 11.0206 23.7812 10.6393C24.1085 10.258 24.2889 9.77245 24.29 9.27C24.2755 8.86214 24.1417 8.4675 23.905 8.135Z" fill="#F0F0F0"/>
<path d="M24.25 9.27999C24.2503 8.79657 24.0846 8.32769 23.7806 7.9518C23.4767 7.57591 23.0528 7.3158 22.58 7.21499C22.6348 6.8112 22.5715 6.40019 22.3977 6.03161C22.2239 5.66303 21.9472 5.35265 21.6008 5.13797C21.2545 4.92329 20.8534 4.81349 20.4459 4.82183C20.0385 4.83018 19.6423 4.95631 19.305 5.18499C19.3325 4.75733 19.2291 4.33144 19.0086 3.96398C18.7881 3.59651 18.461 3.3049 18.0707 3.12794C17.6804 2.95097 17.2454 2.89705 16.8237 2.97333C16.402 3.04962 16.0136 3.25251 15.71 3.55499C15.588 3.11019 15.3232 2.71777 14.9565 2.43807C14.5897 2.15838 14.1413 2.00688 13.68 2.00688C13.2188 2.00688 12.7703 2.15838 12.4035 2.43807C12.0368 2.71777 11.772 3.11019 11.65 3.55499C11.3472 3.25158 10.9589 3.04786 10.5371 2.97109C10.1154 2.89431 9.68024 2.94814 9.2899 3.12537C8.89956 3.30259 8.57264 3.59478 8.35286 3.96284C8.13307 4.3309 8.0309 4.75729 8.06001 5.18499C7.7088 4.947 7.29426 4.81985 6.87001 4.81999C6.56856 4.81832 6.27031 4.88173 5.99561 5.00588C5.72091 5.13003 5.47623 5.312 5.2783 5.53937C5.08036 5.76673 4.93383 6.03414 4.84869 6.32332C4.76356 6.6125 4.74184 6.91665 4.78501 7.21499C4.30461 7.31914 3.87565 7.58775 3.57218 7.97445C3.26871 8.36116 3.10977 8.84168 3.12281 9.33306C3.13585 9.82445 3.32005 10.2959 3.6436 10.6659C3.96716 11.036 4.40976 11.2815 4.89501 11.36C4.73187 11.7807 4.70788 12.2426 4.82655 12.6779C4.94523 13.1132 5.20032 13.499 5.55439 13.7787C5.90846 14.0583 6.34285 14.2172 6.79381 14.2318C7.24477 14.2464 7.68855 14.1161 8.06001 13.86C8.02629 14.3042 8.13473 14.7477 8.36965 15.1262C8.60457 15.5048 8.9538 15.7988 9.36684 15.9658C9.77987 16.1328 10.2353 16.1641 10.6673 16.0552C11.0993 15.9463 11.4855 15.7028 11.77 15.36C11.9382 15.7258 12.2078 16.0357 12.5468 16.2529C12.8857 16.4701 13.2799 16.5856 13.6825 16.5856C14.0851 16.5856 14.4793 16.4701 14.8183 16.2529C15.1572 16.0357 15.4268 15.7258 15.595 15.36C15.8795 15.7028 16.2657 15.9463 16.6977 16.0552C17.1297 16.1641 17.5852 16.1328 17.9982 15.9658C18.4112 15.7988 18.7604 15.5048 18.9954 15.1262C19.2303 14.7477 19.3387 14.3042 19.305 13.86C19.6765 14.114 20.1195 14.2426 20.5693 14.2269C21.0191 14.2113 21.4521 14.0522 21.8051 13.773C22.1581 13.4937 22.4125 13.109 22.5312 12.6748C22.6499 12.2407 22.6267 11.78 22.465 11.36C22.9615 11.2826 23.414 11.0306 23.7412 10.6493C24.0685 10.268 24.2489 9.78245 24.25 9.27999V9.27999Z" stroke="#45413C" stroke-width="0.5" stroke-linecap="round" stroke-linejoin="round"/>
</g>
<defs>
<clipPath id="clip0_226_45096">
<rect width="24" height="24" fill="white" transform="translate(0.5)"/>
</clipPath>
</defs>
</svg>
